<svg width="32" height="32" viewBox="0 0 32 32" fill="none" xmlns="http://www.w3.org/2000/svg">
<rect x="0.5" y="0.5" width="31" height="31" rx="15.5" stroke="#AEB5C2"/>
<path d="M18.5354 22.3578C18.7229 22.1703 18.8282 21.916 18.8282 21.6508C18.8282 21.3857 18.7229 21.1314 18.5354 20.9438L13.5854 15.9938L18.5354 11.0438C18.7176 10.8552 18.8184 10.6026 18.8161 10.3404C18.8138 10.0782 18.7086 9.82744 18.5232 9.64203C18.3378 9.45662 18.087 9.35145 17.8248 9.34917C17.5626 9.3469 17.31 9.44769 17.1214 9.62985L11.4644 15.2868C11.2769 15.4744 11.1716 15.7287 11.1716 15.9938C11.1716 16.259 11.2769 16.5133 11.4644 16.7008L17.1214 22.3578C17.3089 22.5453 17.5633 22.6506 17.8284 22.6506C18.0936 22.6506 18.3479 22.5453 18.5354 22.3578Z" fill="#AEB5C2"/>
</svg>
