<svg width="48" height="48" viewBox="0 0 48 48" fill="none" xmlns="http://www.w3.org/2000/svg">
<path d="M20 12H28C28 10.9391 27.5786 9.92172 26.8284 9.17157C26.0783 8.42143 25.0609 8 24 8C22.9391 8 21.9217 8.42143 21.1716 9.17157C20.4214 9.92172 20 10.9391 20 12ZM16 12C16 9.87827 16.8429 7.84344 18.3431 6.34315C19.8434 4.84285 21.8783 4 24 4C26.1217 4 28.1566 4.84285 29.6569 6.34315C31.1571 7.84344 32 9.87827 32 12H42C42.5304 12 43.0391 12.2107 43.4142 12.5858C43.7893 12.9609 44 13.4696 44 14C44 14.5304 43.7893 15.0391 43.4142 15.4142C43.0391 15.7893 42.5304 16 42 16H40.236L38.464 36.68C38.2936 38.6769 37.38 40.5372 35.9037 41.8927C34.4274 43.2482 32.4962 44.0002 30.492 44H17.508C15.5038 44.0002 13.5726 43.2482 12.0963 41.8927C10.62 40.5372 9.70636 38.6769 9.536 36.68L7.764 16H6C5.46957 16 4.96086 15.7893 4.58579 15.4142C4.21071 15.0391 4 14.5304 4 14C4 13.4696 4.21071 12.9609 4.58579 12.5858C4.96086 12.2107 5.46957 12 6 12H16ZM30 24C30 23.4696 29.7893 22.9609 29.4142 22.5858C29.0391 22.2107 28.5304 22 28 22C27.4696 22 26.9609 22.2107 26.5858 22.5858C26.2107 22.9609 26 23.4696 26 24V32C26 32.5304 26.2107 33.0391 26.5858 33.4142C26.9609 33.7893 27.4696 34 28 34C28.5304 34 29.0391 33.7893 29.4142 33.4142C29.7893 33.0391 30 32.5304 30 32V24ZM20 22C19.4696 22 18.9609 22.2107 18.5858 22.5858C18.2107 22.9609 18 23.4696 18 24V32C18 32.5304 18.2107 33.0391 18.5858 33.4142C18.9609 33.7893 19.4696 34 20 34C20.5304 34 21.0391 33.7893 21.4142 33.4142C21.7893 33.0391 22 32.5304 22 32V24C22 23.4696 21.7893 22.9609 21.4142 22.5858C21.0391 22.2107 20.5304 22 20 22Z" fill="white"/>
</svg>
