<svg width="24" height="24" viewBox="0 0 24 24" fill="none" xmlns="http://www.w3.org/2000/svg">
<path d="M17.1298 2.8356C17.3947 2.57068 17.7092 2.36054 18.0553 2.21716C18.4015 2.07379 18.7725 2 19.1471 2C19.5217 2 19.8927 2.07379 20.2389 2.21716C20.585 2.36054 20.8995 2.57068 21.1644 2.8356C21.4293 3.10051 21.6395 3.41501 21.7828 3.76114C21.9262 4.10727 22 4.47825 22 4.8529C22 5.22755 21.9262 5.59853 21.7828 5.94466C21.6395 6.29079 21.4293 6.60529 21.1644 6.87021L7.54759 20.487L2 22L3.51298 16.4524L17.1298 2.8356Z" stroke="black" stroke-width="2" stroke-linecap="round" stroke-linejoin="round"/>
</svg>
