<svg width="24" height="24" viewBox="0 0 24 24" fill="none" xmlns="http://www.w3.org/2000/svg">
<path d="M12 22C10.6333 22 9.34167 21.7373 8.125 21.212C6.90833 20.6867 5.84567 19.97 4.937 19.062C4.029 18.154 3.31233 17.0917 2.787 15.875C2.26167 14.6583 1.99933 13.3667 2 12C2 10.6167 2.26267 9.32067 2.788 8.112C3.31333 6.90333 4.03 5.84533 4.938 4.938C5.846 4.02933 6.908 3.31267 8.124 2.788C9.34 2.26333 10.632 2.00067 12 2C13.3833 2 14.6793 2.26267 15.888 2.788C17.0967 3.31333 18.1547 4.03 19.062 4.938C19.9707 5.846 20.6873 6.90433 21.212 8.113C21.7367 9.32167 21.9993 10.6173 22 12V13.45C22 14.4333 21.6627 15.271 20.988 15.963C20.3133 16.655 19.484 17.0007 18.5 17C17.9 17 17.3417 16.8667 16.825 16.6C16.3083 16.3333 15.8833 15.9833 15.55 15.55C15.1 16 14.5707 16.3543 13.962 16.613C13.3533 16.8717 12.6993 17.0007 12 17C10.6167 17 9.43733 16.5123 8.462 15.537C7.48667 14.5617 6.99933 13.3827 7 12C7 10.6167 7.48767 9.43733 8.463 8.462C9.43833 7.48667 10.6173 6.99933 12 7C13.3833 7 14.5627 7.48767 15.538 8.463C16.5133 9.43833 17.0007 10.6173 17 12V13.45C17 13.9333 17.15 14.3123 17.45 14.587C17.75 14.8617 18.1 14.9993 18.5 15C18.9 15 19.25 14.8623 19.55 14.587C19.85 14.3117 20 13.9327 20 13.45V12C20 9.81667 19.2123 7.93733 17.637 6.362C16.0617 4.78667 14.1827 3.99933 12 4C9.81667 4 7.93734 4.78767 6.362 6.363C4.78667 7.93833 3.99933 9.81733 4 12C4 14.1833 4.78767 16.0627 6.363 17.638C7.93833 19.2133 9.81733 20.0007 12 20H17V22H12ZM12 15C12.8333 15 13.5417 14.7083 14.125 14.125C14.7083 13.5417 15 12.8333 15 12C15 11.1667 14.7083 10.4583 14.125 9.875C13.5417 9.29167 12.8333 9 12 9C11.1667 9 10.4583 9.29167 9.875 9.875C9.29167 10.4583 9 11.1667 9 12C9 12.8333 9.29167 13.5417 9.875 14.125C10.4583 14.7083 11.1667 15 12 15Z" fill="#F7F7F7"/>
</svg>
