<svg width="36" height="36" viewBox="0 0 36 36" fill="none" xmlns="http://www.w3.org/2000/svg">
<g id="Group">
<path id="Vector" d="M1.33333 18C1.33333 10.1434 1.33333 6.21504 3.77333 3.77337C6.21666 1.33337 10.1433 1.33337 18 1.33337C25.8567 1.33337 29.785 1.33337 32.225 3.77337C34.6667 6.21671 34.6667 10.1434 34.6667 18C34.6667 25.8567 34.6667 29.785 32.225 32.225C29.7867 34.6667 25.8567 34.6667 18 34.6667C10.1433 34.6667 6.215 34.6667 3.77333 32.225C1.33333 29.7867 1.33333 25.8567 1.33333 18Z" stroke="white" stroke-width="2"/>
<path id="Vector_2" d="M23 18H18M18 18H13M18 18V13M18 18V23" stroke="white" stroke-width="2" stroke-linecap="round"/>
</g>
</svg>
