<svg width="24" height="24" viewBox="0 0 24 24" fill="none" xmlns="http://www.w3.org/2000/svg">
<path d="M12.1608 10.87C12.0608 10.86 11.9408 10.86 11.8308 10.87C9.45079 10.79 7.56079 8.84 7.56079 6.44C7.56079 3.99 9.54079 2 12.0008 2C14.4508 2 16.4408 3.99 16.4408 6.44C16.4308 8.84 14.5408 10.79 12.1608 10.87Z" fill="black" stroke="black" stroke-width="1.5" stroke-linecap="round" stroke-linejoin="round"/>
<path d="M7.16058 14.56C4.74058 16.18 4.74058 18.82 7.16058 20.43C9.91058 22.27 14.4206 22.27 17.1706 20.43C19.5906 18.81 19.5906 16.17 17.1706 14.56C14.4306 12.73 9.92058 12.73 7.16058 14.56Z" fill="black" stroke="black" stroke-width="1.5" stroke-linecap="round" stroke-linejoin="round"/>
</svg>
