<svg width="24" height="24" viewBox="0 0 24 24" fill="none" xmlns="http://www.w3.org/2000/svg">
<path d="M18.3578 8.46458C18.1703 8.27711 17.916 8.1718 17.6508 8.1718C17.3857 8.1718 17.1314 8.27711 16.9438 8.46458L11.9938 13.4146L7.04385 8.46458C6.85524 8.28243 6.60264 8.18163 6.34045 8.18391C6.07825 8.18619 5.82744 8.29136 5.64203 8.47677C5.45662 8.66217 5.35145 8.91299 5.34917 9.17518C5.3469 9.43738 5.44769 9.68998 5.62985 9.87858L11.2868 15.5356C11.4744 15.7231 11.7287 15.8284 11.9938 15.8284C12.259 15.8284 12.5133 15.7231 12.7008 15.5356L18.3578 9.87858C18.5453 9.69105 18.6506 9.43675 18.6506 9.17158C18.6506 8.90642 18.5453 8.65211 18.3578 8.46458Z" fill="black"/>
</svg>
