<svg width="24" height="24" viewBox="0 0 24 24" fill="none" xmlns="http://www.w3.org/2000/svg">
<path d="M15.5354 18.3578C15.7229 18.1703 15.8282 17.916 15.8282 17.6508C15.8282 17.3857 15.7229 17.1314 15.5354 16.9438L10.5854 11.9938L15.5354 7.04385C15.7176 6.85525 15.8184 6.60264 15.8161 6.34045C15.8138 6.07825 15.7086 5.82744 15.5232 5.64203C15.3378 5.45662 15.087 5.35145 14.8248 5.34917C14.5626 5.3469 14.31 5.44769 14.1214 5.62985L8.46442 11.2868C8.27695 11.4744 8.17163 11.7287 8.17163 11.9938C8.17163 12.259 8.27695 12.5133 8.46442 12.7008L14.1214 18.3578C14.3089 18.5453 14.5633 18.6506 14.8284 18.6506C15.0936 18.6506 15.3479 18.5453 15.5354 18.3578Z" fill="black"/>
</svg>
