<svg width="24" height="24" viewBox="0 0 24 24" fill="none" xmlns="http://www.w3.org/2000/svg">
<path d="M5.64191 15.5354C5.82944 15.7229 6.08374 15.8282 6.34891 15.8282C6.61407 15.8282 6.86838 15.7229 7.05591 15.5354L12.0059 10.5854L16.9559 15.5354C17.1445 15.7176 17.3971 15.8184 17.6593 15.8161C17.9215 15.8138 18.1723 15.7086 18.3577 15.5232C18.5431 15.3378 18.6483 15.087 18.6506 14.8248C18.6529 14.5626 18.5521 14.31 18.3699 14.1214L12.7129 8.46442C12.5254 8.27695 12.2711 8.17163 12.0059 8.17163C11.7407 8.17163 11.4864 8.27695 11.2989 8.46442L5.64191 14.1214C5.45444 14.3089 5.34912 14.5633 5.34912 14.8284C5.34912 15.0936 5.45444 15.3479 5.64191 15.5354Z" fill="black"/>
</svg>
