<svg width="24" height="24" viewBox="0 0 24 24" fill="none" xmlns="http://www.w3.org/2000/svg">
<path d="M8.46434 5.64203C8.27687 5.82956 8.17155 6.08387 8.17155 6.34903C8.17155 6.61419 8.27687 6.8685 8.46434 7.05603L13.4143 12.006L8.46434 16.956C8.28218 17.1446 8.18139 17.3972 8.18366 17.6594C8.18594 17.9216 8.29111 18.1724 8.47652 18.3578C8.66193 18.5433 8.91274 18.6484 9.17494 18.6507C9.43713 18.653 9.68974 18.5522 9.87834 18.37L15.5353 12.713C15.7228 12.5255 15.8281 12.2712 15.8281 12.006C15.8281 11.7409 15.7228 11.4866 15.5353 11.299L9.87834 5.64203C9.69081 5.45456 9.4365 5.34924 9.17134 5.34924C8.90617 5.34924 8.65187 5.45456 8.46434 5.64203Z" fill="black"/>
</svg>
