<svg width="22" height="22" viewBox="0 0 22 22" fill="none" xmlns="http://www.w3.org/2000/svg">
<path d="M11 0.199951C8.13561 0.199951 5.38859 1.33781 3.3632 3.3632C1.33781 5.38859 0.199951 8.13561 0.199951 11C0.199951 13.8643 1.33781 16.6113 3.3632 18.6367C5.38859 20.6621 8.13561 21.8 11 21.8C13.8643 21.8 16.6113 20.6621 18.6367 18.6367C20.6621 16.6113 21.8 13.8643 21.8 11C21.8 8.13561 20.6621 5.38859 18.6367 3.3632C16.6113 1.33781 13.8643 0.199951 11 0.199951ZM15.152 14.54C15.152 16.304 14.192 18.5 10.28 20.18C10.64 15.176 7.25595 15.752 6.43995 14.18C6.51427 13.5296 6.75108 12.9084 7.12856 12.3737C7.50604 11.8389 8.01205 11.4078 8.59995 11.12C6.73775 10.8005 5.00106 9.96959 3.58395 8.71995C3.64395 9.28395 3.91875 9.80475 4.35195 10.172C3.41345 9.81819 2.60254 9.1912 2.02395 8.37195C2.59608 6.48363 3.74033 4.8195 5.29872 3.60933C6.85711 2.39916 8.75277 1.70265 10.724 1.61595C9.71595 3.27195 8.92395 6.57195 10.724 8.29995C8.87595 8.59995 7.71195 6.19995 6.69195 7.14795C5.33595 8.41995 7.08795 10.16 10.796 10.844C14.744 11.552 15.188 12.74 15.152 14.54ZM16.76 9.73995C16.376 8.40795 17.504 7.06395 18.788 5.97195C19.5898 7.12781 20.1003 8.46045 20.2758 9.85623C20.4513 11.252 20.2867 12.6695 19.796 13.988C18.872 11.72 17.192 11.204 16.76 9.70395V9.73995Z" fill="#F7F7F7"/>
</svg>
