<svg width="40" height="40" viewBox="0 0 40 40" fill="none" xmlns="http://www.w3.org/2000/svg">
<g id="table-add">
<path id="Vector" d="M18.3333 6.66663H26.3333C28.2 6.66663 29.1333 6.66663 29.8467 7.02996C30.4738 7.34953 30.9838 7.85945 31.3033 8.48663C31.6667 9.19829 31.6667 10.1316 31.6667 11.995V15H18.3333M18.3333 6.66663H10.3333C8.46667 6.66663 7.53333 6.66663 6.82 7.02996C6.19275 7.34944 5.68281 7.85938 5.36333 8.48663C5 9.19996 5 10.1333 5 12V15M18.3333 6.66663V15M18.3333 15H5M18.3333 15V33.3333H10.3283C8.465 33.3333 7.53167 33.3333 6.82 32.97C6.19282 32.6504 5.68291 32.1405 5.36333 31.5133C5 30.8 5 29.8666 5 28V25M5 15V25M5 25H18.3333M25 26.6666H30M30 26.6666H35M30 26.6666V31.6666M30 26.6666V21.6666" stroke="white" stroke-width="2.66667" stroke-linecap="round" stroke-linejoin="round"/>
</g>
</svg>
