<svg width="40" height="40" viewBox="0 0 40 40" fill="none" xmlns="http://www.w3.org/2000/svg">
<g id="user-add-outlined">
<path id="Vector" d="M26.4961 25.0938C27.4414 24.5859 28.5234 24.2969 29.6758 24.2969H29.6797C29.7969 24.2969 29.8516 24.1562 29.7656 24.0781C28.5672 23.0027 27.1983 22.134 25.7148 21.5078C25.6992 21.5 25.6836 21.4961 25.668 21.4883C28.0938 19.7266 29.6719 16.8633 29.6719 13.6328C29.6719 8.28125 25.3438 3.94531 20.0039 3.94531C14.6641 3.94531 10.3399 8.28125 10.3399 13.6328C10.3399 16.8633 11.918 19.7266 14.3477 21.4883C14.332 21.4961 14.3164 21.5 14.3008 21.5078C12.5547 22.2461 10.9883 23.3047 9.64063 24.6562C8.30076 25.9937 7.23404 27.5792 6.50001 29.3242C5.77779 31.0331 5.38802 32.8639 5.35157 34.7188C5.35053 34.7604 5.35784 34.8019 5.37308 34.8407C5.38831 34.8796 5.41117 34.9149 5.44029 34.9448C5.46941 34.9746 5.50421 34.9984 5.54265 35.0146C5.58108 35.0307 5.62236 35.0391 5.66407 35.0391H8.00391C8.17188 35.0391 8.31251 34.9023 8.31641 34.7344C8.39454 31.7188 9.60157 28.8945 11.7383 26.7539C13.9453 24.5391 16.8828 23.3203 20.0078 23.3203C22.2227 23.3203 24.3477 23.9336 26.1797 25.082C26.2268 25.1116 26.2808 25.1283 26.3363 25.1303C26.3919 25.1324 26.447 25.1198 26.4961 25.0938ZM20.0078 20.3516C18.2188 20.3516 16.5352 19.6523 15.2656 18.3828C14.641 17.7598 14.1458 17.0194 13.8086 16.2041C13.4714 15.3889 13.2988 14.515 13.3008 13.6328C13.3008 11.8398 14 10.1523 15.2656 8.88281C16.5313 7.61328 18.2149 6.91406 20.0078 6.91406C21.8008 6.91406 23.4805 7.61328 24.75 8.88281C25.3746 9.50582 25.8698 10.2463 26.207 11.0615C26.5443 11.8767 26.7168 12.7506 26.7149 13.6328C26.7149 15.4258 26.0156 17.1133 24.75 18.3828C23.4805 19.6523 21.7969 20.3516 20.0078 20.3516ZM34.375 29.6484H31.0938V26.3672C31.0938 26.1953 30.9531 26.0547 30.7813 26.0547H28.5938C28.4219 26.0547 28.2813 26.1953 28.2813 26.3672V29.6484H25C24.8281 29.6484 24.6875 29.7891 24.6875 29.9609V32.1484C24.6875 32.3203 24.8281 32.4609 25 32.4609H28.2813V35.7422C28.2813 35.9141 28.4219 36.0547 28.5938 36.0547H30.7813C30.9531 36.0547 31.0938 35.9141 31.0938 35.7422V32.4609H34.375C34.5469 32.4609 34.6875 32.3203 34.6875 32.1484V29.9609C34.6875 29.7891 34.5469 29.6484 34.375 29.6484Z" fill="white"/>
</g>
</svg>
