<svg width="24" height="24" viewBox="0 0 24 24" fill="none" xmlns="http://www.w3.org/2000/svg">
<g clip-path="url(#clip0_575_672)">
<path d="M4.78125 9H3.10547V2.2793H0.580078V0.597656H7.30078V2.2793H4.78125V9ZM12.8789 5.64258V3.96094C12.8789 3.73047 12.834 3.51367 12.7441 3.31055C12.6582 3.10352 12.5391 2.92383 12.3867 2.77148C12.2344 2.61914 12.0547 2.5 11.8477 2.41406C11.6445 2.32422 11.4277 2.2793 11.1973 2.2793C10.9668 2.2793 10.748 2.32422 10.541 2.41406C10.3379 2.5 10.1602 2.61914 10.0078 2.77148C9.85547 2.92383 9.73438 3.10352 9.64453 3.31055C9.55859 3.51367 9.51562 3.73047 9.51562 3.96094V5.64258H12.8789ZM14.5605 9H12.8789V7.31836H9.51562V9H7.83984V3.96094C7.83984 3.49609 7.92773 3.06055 8.10352 2.6543C8.2793 2.24414 8.51758 1.88672 8.81836 1.58203C9.12305 1.27734 9.47852 1.03711 9.88477 0.861328C10.2949 0.685547 10.7324 0.597656 11.1973 0.597656C11.6621 0.597656 12.0977 0.685547 12.5039 0.861328C12.9141 1.03711 13.2715 1.27734 13.5762 1.58203C13.8809 1.88672 14.1211 2.24414 14.2969 2.6543C14.4727 3.06055 14.5605 3.49609 14.5605 3.96094V9ZM22.7402 9H20.9414L17.7012 3.46875V9H16.0195V0.597656H17.8184L21.0586 6.13477V0.597656H22.7402V9ZM12.9546 18.0981C12.9546 18.6626 12.8799 19.2077 12.7305 19.7334C12.5866 20.2536 12.3818 20.7433 12.1162 21.2026C11.8506 21.6564 11.5296 22.0715 11.1533 22.4478C10.777 22.8241 10.362 23.1478 9.9082 23.4189C9.45443 23.6846 8.96468 23.8893 8.43896 24.0332C7.91325 24.1826 7.36816 24.2573 6.80371 24.2573C6.23926 24.2573 5.69417 24.1826 5.16846 24.0332C4.64827 23.8893 4.15853 23.6846 3.69922 23.4189C3.24544 23.1478 2.8304 22.8241 2.4541 22.4478C2.0778 22.0715 1.75407 21.6564 1.48291 21.2026C1.21729 20.7433 1.00977 20.2536 0.860352 19.7334C0.716471 19.2077 0.644531 18.6626 0.644531 18.0981C0.644531 17.5337 0.716471 16.9886 0.860352 16.4629C1.00977 15.9372 1.21729 15.4474 1.48291 14.9937C1.75407 14.5399 2.0778 14.1248 2.4541 13.7485C2.8304 13.3722 3.24544 13.0513 3.69922 12.7856C4.15853 12.52 4.64827 12.3153 5.16846 12.1714C5.69417 12.022 6.23926 11.9473 6.80371 11.9473C7.36816 11.9473 7.91325 12.022 8.43896 12.1714C8.96468 12.3153 9.45443 12.52 9.9082 12.7856C10.362 13.0513 10.777 13.3722 11.1533 13.7485C11.5296 14.1248 11.8506 14.5399 12.1162 14.9937C12.3818 15.4474 12.5866 15.9372 12.7305 16.4629C12.8799 16.9886 12.9546 17.5337 12.9546 18.0981ZM10.5889 18.0981C10.5889 17.578 10.4893 17.0882 10.29 16.6289C10.0908 16.1641 9.81966 15.7629 9.47656 15.4253C9.139 15.0822 8.73779 14.811 8.27295 14.6118C7.81364 14.4126 7.32389 14.313 6.80371 14.313C6.27799 14.313 5.78548 14.4126 5.32617 14.6118C4.86686 14.811 4.46566 15.0822 4.12256 15.4253C3.77946 15.7629 3.5083 16.1641 3.30908 16.6289C3.10986 17.0882 3.01025 17.578 3.01025 18.0981C3.01025 18.6183 3.10986 19.1081 3.30908 19.5674C3.5083 20.0212 3.77946 20.4196 4.12256 20.7627C4.46566 21.1058 4.86686 21.377 5.32617 21.5762C5.78548 21.7754 6.27799 21.875 6.80371 21.875C7.32389 21.875 7.81364 21.7754 8.27295 21.5762C8.73779 21.377 9.139 21.1058 9.47656 20.7627C9.81966 20.4196 10.0908 20.0212 10.29 19.5674C10.4893 19.1081 10.5889 18.6183 10.5889 18.0981ZM13.8262 15.666C13.8262 15.1735 13.9202 14.7114 14.1084 14.2798C14.2965 13.8481 14.5511 13.4718 14.8721 13.1509C15.1986 12.8244 15.5776 12.5671 16.0093 12.3789C16.4409 12.1908 16.903 12.0967 17.3955 12.0967H22.8574V14.479H17.3955C17.2295 14.479 17.0745 14.5094 16.9307 14.5703C16.7868 14.6312 16.6595 14.717 16.5488 14.8276C16.4437 14.9328 16.3607 15.0573 16.2998 15.2012C16.2389 15.3451 16.2085 15.5 16.2085 15.666C16.2085 15.832 16.2389 15.9897 16.2998 16.1392C16.3607 16.283 16.4437 16.4103 16.5488 16.521C16.6595 16.6261 16.7868 16.7091 16.9307 16.77C17.0745 16.8309 17.2295 16.8613 17.3955 16.8613H19.7778C20.2703 16.8613 20.7324 16.9554 21.1641 17.1436C21.6012 17.3262 21.9803 17.5807 22.3013 17.9072C22.6278 18.2282 22.8823 18.6073 23.0649 19.0444C23.2531 19.4761 23.3472 19.9382 23.3472 20.4307C23.3472 20.9232 23.2531 21.3853 23.0649 21.8169C22.8823 22.2485 22.6278 22.6276 22.3013 22.9541C21.9803 23.2751 21.6012 23.5296 21.1641 23.7178C20.7324 23.9059 20.2703 24 19.7778 24H14.4902V21.6177H19.7778C19.9438 21.6177 20.0988 21.5872 20.2427 21.5264C20.3866 21.4655 20.5111 21.3825 20.6162 21.2773C20.7269 21.1667 20.8127 21.0394 20.8735 20.8955C20.9344 20.7516 20.9648 20.5967 20.9648 20.4307C20.9648 20.2646 20.9344 20.1097 20.8735 19.9658C20.8127 19.8219 20.7269 19.6974 20.6162 19.5923C20.5111 19.4816 20.3866 19.3958 20.2427 19.335C20.0988 19.2741 19.9438 19.2437 19.7778 19.2437H17.3955C16.903 19.2437 16.4409 19.1496 16.0093 18.9614C15.5776 18.7733 15.1986 18.5187 14.8721 18.1978C14.5511 17.8713 14.2965 17.4922 14.1084 17.0605C13.9202 16.6234 13.8262 16.1585 13.8262 15.666Z" fill="url(#paint0_linear_575_672)"/>
</g>
<defs>
<linearGradient id="paint0_linear_575_672" x1="13.92" y1="-1.49755e-07" x2="16.2474" y2="23.4046" gradientUnits="userSpaceOnUse">
<stop stop-color="#4F378B"/>
<stop offset="0.500912" stop-color="#B69DF8"/>
<stop offset="1" stop-color="#4F378B"/>
</linearGradient>
<clipPath id="clip0_575_672">
<rect width="24" height="24" fill="white"/>
</clipPath>
</defs>
</svg>
